<svg width="1000" height="1000" viewBox="0 0 1000 1000" fill="none" xmlns="http://www.w3.org/2000/svg">
<g clip-path="url(#clip0_1_3)">
<path d="M383.437 147C422.998 147 462.559 147 503.318 147C504.88 153.765 506.442 160.53 508.051 167.5C509.799 172.695 511.6 177.771 513.571 182.875C519.199 197.873 524.331 213.001 529.345 228.212C534.638 244.237 540.069 260.18 545.923 276.011C550.324 287.946 554.494 299.955 558.626 311.986C559.3 313.947 559.974 315.909 560.668 317.93C561.982 321.755 563.295 325.579 564.608 329.404C575.632 361.459 586.95 393.427 598.954 425.13C600.357 428.838 601.75 432.55 603.131 436.267C609.044 452.167 615.176 467.98 621.316 483.793C625.819 495.392 630.316 506.992 634.636 518.661C638.732 529.707 643.125 540.626 647.589 551.528C648.369 553.45 648.369 553.45 649.165 555.411C649.634 556.555 650.102 557.699 650.585 558.878C651.593 561.731 651.593 561.731 651.593 564.885C652.634 564.885 653.675 564.885 654.748 564.885C655.016 563.305 655.016 563.305 655.29 561.694C656.551 555.975 658.38 550.51 660.268 544.976C661.129 542.426 661.99 539.876 662.85 537.325C663.321 535.935 663.791 534.544 664.276 533.111C665.889 528.319 667.483 523.522 669.073 518.723C675.643 498.905 682.34 479.137 689.201 459.418C692.402 450.209 695.562 440.991 698.619 431.733C702.86 418.889 707.257 406.1 711.655 393.309C717.456 376.437 723.255 359.566 728.885 342.637C729.364 341.195 729.844 339.753 730.338 338.267C732.685 331.197 735.026 324.126 737.363 317.053C739.79 309.711 742.222 302.372 744.659 295.034C745.277 293.171 745.277 293.171 745.908 291.27C750.519 277.4 755.213 263.586 760.334 249.894C767.506 230.71 773.651 211.177 779.906 191.679C780.331 190.357 780.757 189.035 781.195 187.673C781.983 185.219 782.769 182.765 783.55 180.31C787.153 169.096 791.164 158.114 795.135 147C825.326 147 855.517 147 886.624 147C884.281 155.586 884.281 155.586 881.891 164.346C881.216 169.593 881.216 169.593 881.3 174.349C881.289 176.139 881.278 177.928 881.266 179.772C881.277 181.682 881.289 183.592 881.301 185.56C881.295 187.633 881.289 189.706 881.282 191.841C881.266 197.549 881.278 203.256 881.296 208.964C881.31 215.138 881.296 221.311 881.287 227.485C881.272 239.562 881.282 251.639 881.301 263.716C881.323 277.799 881.32 291.881 881.317 305.963C881.312 331.104 881.33 356.244 881.361 381.384C881.391 405.743 881.402 430.102 881.393 454.46C881.384 481.019 881.384 507.578 881.402 534.137C881.404 536.973 881.406 539.81 881.408 542.646C881.409 544.041 881.41 545.437 881.411 546.874C881.417 556.674 881.416 566.474 881.413 576.275C881.41 588.233 881.418 600.191 881.441 612.149C881.452 618.242 881.459 624.335 881.452 630.428C881.444 637.052 881.461 643.676 881.48 650.3C881.474 652.2 881.468 654.1 881.462 656.057C881.53 669.28 883.136 680.828 885.046 694.192C856.937 694.192 828.828 694.192 799.867 694.192C799.867 529.23 799.867 364.268 799.867 194.308C797.265 193.787 794.662 193.267 791.98 192.731C786.844 205.796 782.061 218.915 777.685 232.252C776.451 235.983 775.217 239.714 773.982 243.445C773.32 245.449 772.659 247.453 771.997 249.458C768.572 259.824 765.11 270.179 761.653 280.535C759.618 286.632 757.585 292.73 755.553 298.828C754.764 301.194 753.975 303.559 753.186 305.924C752.811 307.049 752.436 308.175 752.05 309.334C706.139 447.026 706.139 447.026 705.03 450.35C704.292 452.563 703.555 454.776 702.817 456.989C700.856 462.87 698.895 468.751 696.933 474.631C692.977 486.49 689.025 498.351 685.088 510.216C683.684 514.444 682.279 518.672 680.873 522.899C680.348 524.48 680.348 524.48 679.811 526.092C675.658 538.573 671.455 551.036 667.176 563.474C666.756 564.693 666.337 565.912 665.905 567.168C664.19 572.151 662.474 577.135 660.758 582.119C652.896 604.965 645.382 627.917 638.029 650.932C633.511 665.018 628.723 678.884 623.2 692.615C618.814 688.833 617.163 685.299 615.22 679.883C614.622 678.24 614.024 676.596 613.408 674.903C612.768 673.105 612.128 671.307 611.468 669.454C610.412 666.547 609.357 663.64 608.299 660.734C607.557 658.696 606.818 656.657 606.079 654.617C602.457 644.614 598.72 634.654 594.969 624.699C589.026 608.93 583.128 593.145 577.283 577.34C576.157 574.299 575.031 571.258 573.904 568.217C572.248 563.745 570.593 559.273 568.945 554.799C563.342 539.586 557.58 524.546 551.078 509.692C548.295 503.159 545.98 496.517 543.739 489.784C539.544 477.485 534.905 465.433 530 453.402C526.582 444.972 523.429 436.491 520.472 427.889C517.717 419.877 514.735 412.091 511.304 404.334C507.453 395.594 504.228 386.762 501.149 377.724C496.575 364.323 491.308 351.336 485.721 338.331C482.544 330.93 479.648 323.436 476.799 315.903C474.858 310.824 472.828 305.788 470.785 300.75C464.37 284.868 458.397 268.811 452.343 252.789C448.342 242.216 444.337 231.645 440.223 221.115C439.796 220.015 439.369 218.914 438.929 217.78C436.148 210.929 432.512 204.942 428.392 198.841C427.71 197.825 427.027 196.809 426.323 195.761C416.137 180.889 404.346 167.343 391.324 154.885C388.721 152.283 386.118 149.681 383.437 147Z" fill="#0086D2"/>
<path d="M161.025 194.308C161.546 194.308 162.066 194.308 162.603 194.308C162.553 196.153 162.553 196.153 162.502 198.036C162.37 203.725 162.289 209.413 162.208 215.103C162.155 217.038 162.103 218.972 162.048 220.964C161.761 248.166 172.065 271.458 189.418 292.077C190.589 293.638 191.761 295.199 192.967 296.808C210.474 317.329 237.629 333.284 260.401 347.269C262.419 348.544 264.436 349.821 266.451 351.101C278.422 358.682 290.472 365.852 302.99 372.5C334.683 389.47 365.728 407.435 394.738 428.728C397.508 430.754 400.3 432.747 403.099 434.733C412.572 441.581 420.391 448.47 427.604 457.654C428.486 458.662 429.369 459.67 430.278 460.709C457.262 492.645 461.322 533.749 458.776 573.977C454.417 609.013 434.27 643.562 406.76 665.43C403.743 667.698 400.709 669.929 397.633 672.115C398.284 670.196 398.935 668.278 399.605 666.3C410.763 632.835 417.535 596.894 401.053 563.499C379.087 523.619 339.291 506.162 300.685 484.916C290.697 479.418 280.795 473.803 270.974 468.01C266.737 465.554 262.453 463.214 258.133 460.906C221.342 440.959 184.624 415.893 159.448 381.962C158.478 380.659 157.508 379.356 156.509 378.013C147.652 365.153 142.553 350.845 137.364 336.231C136.807 334.71 136.25 333.19 135.676 331.623C124.07 297.154 129.267 251.821 144.383 219.36C149.068 210.471 154.368 201.874 161.025 194.308Z" fill="#0086D2"/>
<path d="M131.055 626.385C135.661 630.989 138.741 635.678 142.097 641.168C152.833 658.23 165.975 672.785 180.415 686.792C182.389 688.709 184.33 690.659 186.263 692.615C186.263 693.136 186.263 693.656 186.263 694.192C168.045 694.192 149.826 694.192 131.055 694.192C131.055 671.816 131.055 649.439 131.055 626.385Z" fill="#0086D2"/>
<path d="M153.344 814C153.135 811.513 152.12 809.501 150.297 807.965C148.487 806.428 146.143 805.66 143.266 805.66C141.326 805.66 139.6 806.018 138.09 806.734C136.579 807.451 135.395 808.427 134.535 809.664C133.676 810.901 133.246 812.32 133.246 813.922C133.246 814.951 133.441 815.882 133.832 816.715C134.236 817.535 134.802 818.271 135.531 818.922C136.26 819.56 137.126 820.12 138.129 820.602C139.132 821.083 140.238 821.507 141.449 821.871L145.824 823.16C147.322 823.616 148.702 824.143 149.965 824.742C151.241 825.341 152.348 826.057 153.285 826.891C154.236 827.711 154.971 828.674 155.492 829.781C156.026 830.888 156.293 832.164 156.293 833.609C156.293 835.719 155.746 837.607 154.652 839.273C153.572 840.94 152.029 842.255 150.023 843.219C148.031 844.169 145.681 844.645 142.973 844.645C140.395 844.645 138.148 844.208 136.234 843.336C134.333 842.464 132.829 841.253 131.723 839.703C130.616 838.141 129.991 836.344 129.848 834.312H132.348C132.478 835.966 133.005 837.398 133.93 838.609C134.867 839.807 136.111 840.732 137.66 841.383C139.21 842.034 140.98 842.359 142.973 842.359C145.121 842.359 147.016 841.995 148.656 841.266C150.297 840.523 151.579 839.495 152.504 838.18C153.428 836.865 153.891 835.335 153.891 833.59C153.891 832.184 153.559 830.979 152.895 829.977C152.23 828.974 151.247 828.108 149.945 827.379C148.656 826.65 147.055 825.999 145.141 825.426L140.473 824.02C137.348 823.069 134.958 821.773 133.305 820.133C131.664 818.492 130.844 816.448 130.844 814C130.844 811.943 131.391 810.12 132.484 808.531C133.578 806.93 135.063 805.673 136.938 804.762C138.826 803.85 140.954 803.395 143.324 803.395C145.707 803.395 147.81 803.857 149.633 804.781C151.456 805.693 152.901 806.949 153.969 808.551C155.036 810.139 155.629 811.956 155.746 814H153.344ZM298.081 804H300.523V830.484C300.523 833.206 299.891 835.634 298.628 837.77C297.365 839.892 295.62 841.572 293.394 842.809C291.18 844.033 288.635 844.645 285.757 844.645C282.892 844.645 280.347 844.033 278.12 842.809C275.894 841.572 274.142 839.885 272.866 837.75C271.603 835.615 270.978 833.193 270.991 830.484V804H273.433V830.348C273.433 832.652 273.954 834.703 274.995 836.5C276.05 838.297 277.502 839.716 279.351 840.758C281.2 841.786 283.335 842.301 285.757 842.301C288.179 842.301 290.314 841.786 292.163 840.758C294.012 839.716 295.458 838.297 296.499 836.5C297.554 834.703 298.081 832.652 298.081 830.348V804ZM417.13 844V804H430.119C432.54 804 434.585 804.43 436.251 805.289C437.918 806.148 439.181 807.353 440.04 808.902C440.913 810.452 441.349 812.255 441.349 814.312C441.349 815.927 441.089 817.359 440.568 818.609C440.047 819.859 439.318 820.895 438.38 821.715C437.456 822.522 436.369 823.082 435.119 823.395V823.629C436.499 823.733 437.781 824.215 438.966 825.074C440.151 825.921 441.102 827.073 441.818 828.531C442.547 829.99 442.912 831.689 442.912 833.629C442.912 835.673 442.469 837.477 441.583 839.039C440.711 840.589 439.402 841.806 437.658 842.691C435.913 843.564 433.751 844 431.173 844H417.13ZM419.572 841.734H431.173C434.181 841.734 436.492 840.979 438.107 839.469C439.734 837.958 440.548 836.012 440.548 833.629C440.548 831.949 440.151 830.445 439.357 829.117C438.576 827.789 437.488 826.741 436.095 825.973C434.702 825.191 433.087 824.801 431.251 824.801H419.572V841.734ZM419.572 822.574H430.958C432.664 822.574 434.109 822.203 435.294 821.461C436.492 820.719 437.404 819.723 438.029 818.473C438.667 817.223 438.986 815.836 438.986 814.312C438.986 811.839 438.218 809.879 436.681 808.434C435.145 806.988 432.957 806.266 430.119 806.266H419.572V822.574ZM557.576 804H560.232L575.642 840.484H575.916L591.326 804H593.982V844H591.638V809.801H591.404L576.931 844H574.627L560.154 809.801H559.92V844H557.576V804ZM709.047 844H706.469L720.902 804H723.715L738.148 844H735.57L722.406 807.145H722.211L709.047 844ZM712.699 828.941H731.918V831.207H712.699V828.941ZM881.226 804V844H878.843L853.335 808.434H853.101V844H850.659V804H853.062L878.569 839.605H878.804V804H881.226Z" fill="#1DABF2"/>
</g>
<defs>
<clipPath id="clip0_1_3">
<rect width="1000" height="1000" fill="white"/>
</clipPath>
</defs>
</svg>
