<svg width="907" height="907" viewBox="0 0 907 907" fill="none" xmlns="http://www.w3.org/2000/svg">
<path d="M327.092 100C366.653 100 406.214 100 446.973 100C448.535 106.765 450.096 113.53 451.705 120.5C453.454 125.695 455.254 130.771 457.226 135.875C462.854 150.873 467.986 166.001 473 181.212C478.293 197.237 483.724 213.18 489.578 229.011C493.979 240.946 498.149 252.955 502.28 264.986C502.954 266.947 503.629 268.909 504.323 270.93C505.637 274.755 506.95 278.579 508.263 282.404C519.287 314.459 530.605 346.427 542.609 378.13C544.012 381.838 545.405 385.55 546.786 389.267C552.699 405.167 558.831 420.98 564.971 436.793C569.474 448.392 573.971 459.992 578.291 471.661C582.387 482.707 586.78 493.626 591.244 504.528C592.024 506.45 592.024 506.45 592.82 508.411C593.288 509.555 593.757 510.699 594.24 511.878C595.248 514.731 595.248 514.731 595.248 517.885C596.289 517.885 597.33 517.885 598.402 517.885C598.671 516.305 598.671 516.305 598.945 514.694C600.206 508.975 602.034 503.51 603.923 497.976C604.784 495.426 605.645 492.876 606.505 490.325C606.976 488.935 607.446 487.544 607.931 486.111C609.544 481.319 611.138 476.522 612.728 471.723C619.298 451.905 625.995 432.137 632.855 412.418C636.057 403.209 639.217 393.991 642.274 384.733C646.515 371.889 650.912 359.1 655.31 346.309C661.111 329.437 666.91 312.566 672.54 295.637C673.019 294.195 673.499 292.753 673.993 291.267C676.34 284.197 678.681 277.126 681.018 270.053C683.445 262.711 685.877 255.372 688.314 248.034C688.932 246.171 688.932 246.171 689.563 244.27C694.174 230.4 698.868 216.586 703.989 202.894C711.16 183.71 717.306 164.177 723.561 144.679C723.986 143.357 724.412 142.035 724.85 140.673C725.638 138.219 726.424 135.765 727.205 133.31C730.808 122.096 734.819 111.114 738.79 100C768.981 100 799.172 100 830.278 100C827.936 108.586 827.936 108.586 825.546 117.346C824.871 122.593 824.871 122.593 824.955 127.349C824.944 129.139 824.932 130.928 824.921 132.772C824.932 134.682 824.944 136.592 824.956 138.56C824.95 140.633 824.943 142.706 824.937 144.841C824.92 150.549 824.933 156.256 824.951 161.964C824.965 168.138 824.951 174.311 824.942 180.485C824.927 192.562 824.937 204.639 824.956 216.716C824.978 230.799 824.975 244.881 824.972 258.963C824.967 284.104 824.985 309.244 825.016 334.384C825.046 358.743 825.057 383.102 825.048 407.46C825.039 434.019 825.039 460.578 825.057 487.137C825.059 489.973 825.061 492.81 825.063 495.646C825.064 497.041 825.065 498.437 825.066 499.874C825.072 509.674 825.071 519.474 825.068 529.275C825.065 541.233 825.073 553.191 825.096 565.149C825.107 571.242 825.114 577.335 825.107 583.428C825.099 590.052 825.116 596.676 825.135 603.3C825.129 605.2 825.123 607.1 825.117 609.057C825.185 622.28 826.791 633.828 828.701 647.192C800.592 647.192 772.483 647.192 743.522 647.192C743.522 482.23 743.522 317.268 743.522 147.308C740.919 146.787 738.317 146.267 735.635 145.731C730.499 158.796 725.716 171.915 721.34 185.252C720.106 188.983 718.872 192.714 717.637 196.445C716.975 198.449 716.314 200.453 715.652 202.458C712.227 212.824 708.765 223.179 705.308 233.535C703.273 239.632 701.24 245.73 699.207 251.828C698.419 254.194 697.63 256.559 696.841 258.924C696.466 260.049 696.091 261.175 695.704 262.334C649.793 400.026 649.793 400.026 648.685 403.35C647.947 405.563 647.209 407.776 646.472 409.989C644.511 415.87 642.55 421.751 640.588 427.631C636.632 439.49 632.68 451.351 628.743 463.216C627.338 467.444 625.934 471.672 624.528 475.899C624.002 477.48 624.002 477.48 623.466 479.092C619.313 491.573 615.11 504.036 610.831 516.474C610.411 517.693 609.992 518.912 609.56 520.168C607.845 525.151 606.129 530.135 604.412 535.119C596.551 557.965 589.037 580.917 581.684 603.932C577.166 618.018 572.378 631.884 566.855 645.615C562.468 641.833 560.817 638.299 558.875 632.883C558.277 631.24 557.679 629.596 557.063 627.903C556.423 626.105 555.783 624.307 555.123 622.454C554.067 619.547 553.012 616.64 551.954 613.734C551.212 611.696 550.473 609.657 549.734 607.617C546.112 597.614 542.375 587.654 538.624 577.699C532.681 561.93 526.783 546.145 520.938 530.34C519.812 527.299 518.685 524.258 517.559 521.217C515.903 516.745 514.248 512.273 512.6 507.799C506.996 492.586 501.235 477.546 494.733 462.692C491.949 456.159 489.635 449.517 487.394 442.784C483.198 430.485 478.56 418.433 473.655 406.402C470.237 397.972 467.084 389.491 464.127 380.889C461.372 372.877 458.39 365.091 454.959 357.334C451.108 348.594 447.883 339.762 444.804 330.724C440.23 317.323 434.963 304.336 429.376 291.331C426.199 283.93 423.303 276.436 420.453 268.903C418.513 263.824 416.483 258.788 414.44 253.75C408.025 237.868 402.052 221.811 395.998 205.789C391.997 195.216 387.991 184.645 383.878 174.115C383.451 173.015 383.023 171.914 382.583 170.78C379.803 163.929 376.167 157.942 372.047 151.841C371.365 150.825 370.682 149.809 369.978 148.761C359.792 133.889 348.001 120.343 334.979 107.885C332.376 105.283 329.773 102.681 327.092 100Z" fill="url(#paint0_linear_13_78)"/>
<path d="M104.68 147.308C105.201 147.308 105.721 147.308 106.257 147.308C106.208 149.153 106.208 149.153 106.157 151.035C106.024 156.725 105.944 162.413 105.863 168.103C105.81 170.037 105.757 171.972 105.703 173.964C105.416 201.166 115.72 224.458 133.073 245.077C134.244 246.638 135.415 248.199 136.622 249.808C154.129 270.329 181.284 286.284 204.055 300.269C206.074 301.544 208.091 302.821 210.106 304.101C222.077 311.682 234.127 318.852 246.645 325.5C278.338 342.47 309.383 360.435 338.393 381.728C341.163 383.754 343.954 385.747 346.754 387.733C356.227 394.581 364.046 401.47 371.259 410.654C372.141 411.662 373.023 412.67 373.933 413.709C400.917 445.645 404.977 486.749 402.43 526.976C398.072 562.012 377.925 596.562 350.414 618.43C347.398 620.698 344.364 622.929 341.288 625.115C341.939 623.196 342.59 621.277 343.26 619.3C354.418 585.835 361.19 549.894 344.708 516.499C322.742 476.619 282.946 459.162 244.34 437.916C234.351 432.418 224.45 426.803 214.629 421.01C210.392 418.554 206.108 416.213 201.788 413.906C164.997 393.959 128.279 368.893 103.103 334.961C102.133 333.658 101.163 332.355 100.164 331.013C91.3063 318.153 86.2077 303.845 81.0192 289.231C80.4621 287.71 79.905 286.19 79.3309 284.623C67.725 250.154 72.9223 204.821 88.0374 172.36C92.7228 163.471 98.0227 154.874 104.68 147.308Z" fill="url(#paint1_linear_13_78)"/>
<path d="M74.7097 579.385C79.3158 583.989 82.3959 588.678 85.7514 594.168C96.4876 611.23 109.63 625.785 124.07 639.792C126.043 641.709 127.985 643.659 129.918 645.615C129.918 646.136 129.918 646.656 129.918 647.192C111.699 647.192 93.4806 647.192 74.7097 647.192C74.7097 624.816 74.7097 602.439 74.7097 579.385Z" fill="url(#paint2_linear_13_78)"/>
<path d="M99.7188 765C99.4844 763.021 98.5339 761.484 96.8672 760.391C95.2005 759.297 93.1563 758.75 90.7344 758.75C88.9635 758.75 87.4141 759.036 86.0859 759.609C84.7708 760.182 83.7422 760.97 83 761.973C82.2708 762.975 81.9063 764.115 81.9063 765.391C81.9063 766.458 82.1602 767.376 82.668 768.145C83.1888 768.9 83.8529 769.531 84.6602 770.039C85.4674 770.534 86.3138 770.944 87.1992 771.27C88.0846 771.582 88.8984 771.836 89.6406 772.031L93.7031 773.125C94.7448 773.398 95.9036 773.776 97.1797 774.258C98.4688 774.74 99.6992 775.397 100.871 776.23C102.056 777.051 103.033 778.105 103.801 779.395C104.569 780.684 104.953 782.266 104.953 784.141C104.953 786.302 104.387 788.255 103.254 790C102.134 791.745 100.493 793.132 98.332 794.16C96.1836 795.189 93.5729 795.703 90.5 795.703C87.6354 795.703 85.1549 795.241 83.0586 794.316C80.9753 793.392 79.3346 792.103 78.1367 790.449C76.9518 788.796 76.2813 786.875 76.125 784.688H81.125C81.2552 786.198 81.763 787.448 82.6484 788.437C83.5469 789.414 84.6797 790.143 86.0469 790.625C87.4271 791.094 88.9115 791.328 90.5 791.328C92.349 791.328 94.0091 791.029 95.4805 790.43C96.9518 789.818 98.1172 788.971 98.9766 787.891C99.8359 786.797 100.266 785.521 100.266 784.062C100.266 782.734 99.8945 781.654 99.1523 780.82C98.4102 779.987 97.4336 779.31 96.2227 778.789C95.0117 778.268 93.7031 777.812 92.2969 777.422L87.375 776.016C84.25 775.117 81.776 773.835 79.9531 772.168C78.1302 770.501 77.2188 768.32 77.2188 765.625C77.2188 763.385 77.8242 761.432 79.0352 759.766C80.2591 758.086 81.8997 756.784 83.957 755.859C86.0273 754.922 88.3385 754.453 90.8906 754.453C93.4688 754.453 95.7604 754.915 97.7656 755.84C99.7708 756.751 101.359 758.001 102.531 759.59C103.716 761.178 104.341 762.982 104.406 765H99.7188ZM243.117 755H247.961V781.484C247.961 784.219 247.316 786.66 246.027 788.809C244.751 790.944 242.948 792.63 240.617 793.867C238.286 795.091 235.552 795.703 232.414 795.703C229.276 795.703 226.541 795.091 224.211 793.867C221.88 792.63 220.07 790.944 218.781 788.809C217.505 786.66 216.867 784.219 216.867 781.484V755H221.711V781.094C221.711 783.047 222.14 784.785 223 786.309C223.859 787.819 225.083 789.01 226.672 789.883C228.273 790.742 230.187 791.172 232.414 791.172C234.64 791.172 236.554 790.742 238.156 789.883C239.758 789.01 240.982 787.819 241.828 786.309C242.687 784.785 243.117 783.047 243.117 781.094V755ZM361.584 795V755H375.568C378.354 755 380.653 755.482 382.462 756.445C384.272 757.396 385.62 758.678 386.505 760.293C387.391 761.895 387.834 763.672 387.834 765.625C387.834 767.344 387.528 768.763 386.916 769.883C386.317 771.003 385.522 771.888 384.533 772.539C383.556 773.19 382.495 773.672 381.349 773.984V774.375C382.573 774.453 383.804 774.883 385.041 775.664C386.278 776.445 387.313 777.565 388.146 779.023C388.979 780.482 389.396 782.266 389.396 784.375C389.396 786.38 388.94 788.184 388.029 789.785C387.117 791.387 385.679 792.656 383.712 793.594C381.746 794.531 379.188 795 376.037 795H361.584ZM366.427 790.703H376.037C379.201 790.703 381.447 790.091 382.775 788.867C384.116 787.63 384.787 786.133 384.787 784.375C384.787 783.021 384.442 781.771 383.752 780.625C383.061 779.466 382.078 778.542 380.802 777.852C379.526 777.148 378.016 776.797 376.271 776.797H366.427V790.703ZM366.427 772.578H375.412C376.87 772.578 378.185 772.292 379.357 771.719C380.542 771.146 381.479 770.339 382.17 769.297C382.873 768.255 383.224 767.031 383.224 765.625C383.224 763.867 382.612 762.376 381.388 761.152C380.164 759.915 378.224 759.297 375.568 759.297H366.427V772.578ZM501.305 755H507.086L520.68 788.203H521.149L534.743 755H540.524V795H535.993V764.609H535.602L523.102 795H518.727L506.227 764.609H505.836V795H501.305V755ZM655.826 795H650.748L665.436 755H670.436L685.123 795H680.045L668.092 761.328H667.779L655.826 795ZM657.701 779.375H678.17V783.672H657.701V779.375ZM827.022 755V795H822.335L800.538 763.594H800.147V795H795.304V755H799.991L821.866 786.484H822.257V755H827.022Z" fill="url(#paint3_linear_13_78)"/>
<defs>
<linearGradient id="paint0_linear_13_78" x1="830" y1="100" x2="12.2915" y2="214.88" gradientUnits="userSpaceOnUse">
<stop stop-color="#F35325"/>
<stop offset="0.33173" stop-color="#FFBA08"/>
<stop offset="0.629807" stop-color="#81BC06"/>
<stop offset="1" stop-color="#05A6F0"/>
</linearGradient>
<linearGradient id="paint1_linear_13_78" x1="830" y1="100" x2="12.2915" y2="214.88" gradientUnits="userSpaceOnUse">
<stop stop-color="#F35325"/>
<stop offset="0.33173" stop-color="#FFBA08"/>
<stop offset="0.629807" stop-color="#81BC06"/>
<stop offset="1" stop-color="#05A6F0"/>
</linearGradient>
<linearGradient id="paint2_linear_13_78" x1="830" y1="100" x2="12.2915" y2="214.88" gradientUnits="userSpaceOnUse">
<stop stop-color="#F35325"/>
<stop offset="0.33173" stop-color="#FFBA08"/>
<stop offset="0.629807" stop-color="#81BC06"/>
<stop offset="1" stop-color="#05A6F0"/>
</linearGradient>
<linearGradient id="paint3_linear_13_78" x1="73" y1="774.5" x2="834" y2="774.5" gradientUnits="userSpaceOnUse">
<stop stop-color="#F35325"/>
<stop offset="0.374999" stop-color="#FFBA08"/>
<stop offset="0.70673" stop-color="#81BC06"/>
<stop offset="0.990384" stop-color="#05A6F0"/>
</linearGradient>
</defs>
</svg>
